<svg xmlns="http://www.w3.org/2000/svg" width="120" height="120" viewBox="0 0 64 64">
  <defs>
    <linearGradient id="g" x1="0" x2="0" y1="0" y2="1">
      <stop offset="0" stop-color="#e6f7ff"/>
      <stop offset="1" stop-color="#cceeff"/>
    </linearGradient>
  </defs>
  <g stroke="#6fb0ff" stroke-width="1.5" fill="url(#g)">
    <path d="M8 20 Q8 8 20 8 H44 Q56 8 56 20 V38 Q56 44 50 44 C46 44 42 40 38 44 C34 48 30 44 26 44 C22 44 18 48 14 44 C10 40 8 38 8 38 Z"/>
  </g>
  <g fill="#06323a">
    <ellipse cx="24" cy="26" rx="4" ry="5"/>
    <ellipse cx="40" cy="26" rx="4" ry="5"/>
  </g>
  <g fill="#fff" opacity="0.9">
    <ellipse cx="22" cy="24" rx="2" ry="3"/>
    <ellipse cx="38" cy="24" rx="2" ry="3"/>
  </g>
</svg>